{"accessors" : [{"bufferView" : 0, "byteOffset" : 0, "componentType" : 5126, "normalized" : false, "count" : 168, "type" : "SCALAR", "max" : [5.566666666666667], "min" : [0]}, {"bufferView" : 1, "componentType" : 5126, "count" : 168, "type" : "VEC3"}, {"bufferView" : 2, "byteOffset" : 0, "componentType" : 5126, "normalized" : false, "count" : 168, "type" : "SCALAR", "max" : [5.566666666666667], "min" : [0]}, {"bufferView" : 3, "componentType" : 5126, "count" : 168, "type" : "VEC4"}, {"bufferView" : 4, "byteOffset" : 0, "componentType" : 5126, "normalized" : false, "count" : 168, "type" : "SCALAR", "max" : [5.566666666666667], "min" : [0]}, {"bufferView" : 5, "componentType" : 5126, "count" : 168, "type" : "VEC4"}, {"bufferView" : 6, "byteOffset" : 0, "componentType" : 5126, "normalized" : false, "count" : 168, "type" : "SCALAR", "max" : [5.566666666666667], "min" : [0]}, {"bufferView" : 7, "componentType" : 5126, "count" : 168, "type" : "VEC4"}, {"bufferView" : 8, "byteOffset" : 0, "componentType" : 5126, "normalized" : false, "count" : 168, "type" : "SCALAR", "max" : [5.566666666666667], "min" : [0]}, {"bufferView" : 9, "componentType" : 5126, "count" : 168, "type" : "VEC4"}, {"bufferView" : 10, "byteOffset" : 0, "componentType" : 5126, "normalized" : false, "count" : 168, "type" : "SCALAR", "max" : [5.566666666666667], "min" : [0]}, {"bufferView" : 11, "componentType" : 5126, "count" : 168, "type" : "VEC4"}, {"bufferView" : 12, "byteOffset" : 0, "componentType" : 5126, "normalized" : false, "count" : 168, "type" : "SCALAR", "max" : [5.566666666666667], "min" : [0]}, {"bufferView" : 13, "componentType" : 5126, "count" : 168, "type" : "VEC4"}, {"bufferView" : 14, "byteOffset" : 0, "componentType" : 5126, "normalized" : false, "count" : 168, "type" : "SCALAR", "max" : [5.566666666666667], "min" : [0]}, {"bufferView" : 15, "componentType" : 5126, "count" : 168, "type" : "VEC4"}, {"bufferView" : 16, "byteOffset" : 0, "componentType" : 5126, "normalized" : false, "count" : 168, "type" : "SCALAR", "max" : [5.566666666666667], "min" : [0]}, {"bufferView" : 17, "componentType" : 5126, "count" : 168, "type" : "VEC4"}, {"bufferView" : 18, "byteOffset" : 0, "componentType" : 5126, "normalized" : false, "count" : 168, "type" : "SCALAR", "max" : [5.566666666666667], "min" : [0]}, {"bufferView" : 19, "componentType" : 5126, "count" : 168, "type" : "VEC4"}, {"bufferView" : 20, "byteOffset" : 0, "componentType" : 5126, "normalized" : false, "count" : 168, "type" : "SCALAR", "max" : [5.566666666666667], "min" : [0]}, {"bufferView" : 21, "componentType" : 5126, "count" : 168, "type" : "VEC4"}, {"bufferView" : 22, "byteOffset" : 0, "componentType" : 5126, "normalized" : false, "count" : 168, "type" : "SCALAR", "max" : [5.566666666666667], "min" : [0]}, {"bufferView" : 23, "componentType" : 5126, "count" : 168, "type" : "VEC4"}, {"bufferView" : 24, "byteOffset" : 0, "componentType" : 5126, "normalized" : false, "count" : 168, "type" : "SCALAR", "max" : [5.566666666666667], "min" : [0]}, {"bufferView" : 25, "componentType" : 5126, "count" : 168, "type" : "VEC4"}, {"bufferView" : 26, "byteOffset" : 0, "componentType" : 5126, "normalized" : false, "count" : 1, "type" : "SCALAR", "max" : [0], "min" : [0]}, {"bufferView" : 27, "componentType" : 5126, "count" : 1, "type" : "VEC4"}, {"bufferView" : 28, "byteOffset" : 0, "componentType" : 5126, "normalized" : false, "count" : 168, "type" : "SCALAR", "max" : [5.566666666666667], "min" : [0]}, {"bufferView" : 29, "componentType" : 5126, "count" : 168, "type" : "VEC4"}, {"bufferView" : 30, "byteOffset" : 0, "componentType" : 5126, "normalized" : false, "count" : 168, "type" : "SCALAR", "max" : [5.566666666666667], "min" : [0]}, {"bufferView" : 31, "componentType" : 5126, "count" : 168, "type" : "VEC4"}, {"bufferView" : 32, "byteOffset" : 0, "componentType" : 5126, "normalized" : false, "count" : 1, "type" : "SCALAR", "max" : [0], "min" : [0]}, {"bufferView" : 33, "componentType" : 5126, "count" : 1, "type" : "VEC4"}, {"bufferView" : 34, "byteOffset" : 0, "componentType" : 5126, "normalized" : false, "count" : 168, "type" : "SCALAR", "max" : [5.566666666666667], "min" : [0]}, {"bufferView" : 35, "componentType" : 5126, "count" : 168, "type" : "VEC4"}, {"bufferView" : 36, "byteOffset" : 0, "componentType" : 5126, "normalized" : false, "count" : 168, "type" : "SCALAR", "max" : [5.566666666666667], "min" : [0]}, {"bufferView" : 37, "componentType" : 5126, "count" : 168, "type" : "VEC4"}, {"bufferView" : 38, "byteOffset" : 0, "componentType" : 5126, "normalized" : false, "count" : 1, "type" : "SCALAR", "max" : [0], "min" : [0]}, {"bufferView" : 39, "componentType" : 5126, "count" : 1, "type" : "VEC4"}, {"bufferView" : 40, "byteOffset" : 0, "componentType" : 5126, "normalized" : false, "count" : 168, "type" : "SCALAR", "max" : [5.566666666666667], "min" : [0]}, {"bufferView" : 41, "componentType" : 5126, "count" : 168, "type" : "VEC4"}, {"bufferView" : 42, "byteOffset" : 0, "componentType" : 5126, "normalized" : false, "count" : 168, "type" : "SCALAR", "max" : [5.566666666666667], "min" : [0]}, {"bufferView" : 43, "componentType" : 5126, "count" : 168, "type" : "VEC4"}, {"bufferView" : 44, "byteOffset" : 0, "componentType" : 5126, "normalized" : false, "count" : 1, "type" : "SCALAR", "max" : [0], "min" : [0]}, {"bufferView" : 45, "componentType" : 5126, "count" : 1, "type" : "VEC4"}, {"bufferView" : 46, "byteOffset" : 0, "componentType" : 5126, "normalized" : false, "count" : 168, "type" : "SCALAR", "max" : [5.566666666666667], "min" : [0]}, {"bufferView" : 47, "componentType" : 5126, "count" : 168, "type" : "VEC4"}, {"bufferView" : 48, "byteOffset" : 0, "componentType" : 5126, "normalized" : false, "count" : 168, "type" : "SCALAR", "max" : [5.566666666666667], "min" : [0]}, {"bufferView" : 49, "componentType" : 5126, "count" : 168, "type" : "VEC4"}, {"bufferView" : 50, "byteOffset" : 0, "componentType" : 5126, "normalized" : false, "count" : 1, "type" : "SCALAR", "max" : [0], "min" : [0]}, {"bufferView" : 51, "componentType" : 5126, "count" : 1, "type" : "VEC4"}, {"bufferView" : 52, "byteOffset" : 0, "componentType" : 5126, "normalized" : false, "count" : 1, "type" : "SCALAR", "max" : [0], "min" : [0]}, {"bufferView" : 53, "componentType" : 5126, "count" : 1, "type" : "VEC4"}, {"bufferView" : 54, "byteOffset" : 0, "componentType" : 5126, "normalized" : false, "count" : 1, "type" : "SCALAR", "max" : [0], "min" : [0]}, {"bufferView" : 55, "componentType" : 5126, "count" : 1, "type" : "VEC4"}, {"bufferView" : 56, "byteOffset" : 0, "componentType" : 5126, "normalized" : false, "count" : 1, "type" : "SCALAR", "max" : [0], "min" : [0]}, {"bufferView" : 57, "componentType" : 5126, "count" : 1, "type" : "VEC4"}, {"bufferView" : 58, "byteOffset" : 0, "componentType" : 5126, "normalized" : false, "count" : 1, "type" : "SCALAR", "max" : [0], "min" : [0]}, {"bufferView" : 59, "componentType" : 5126, "count" : 1, "type" : "VEC4"}, {"bufferView" : 60, "byteOffset" : 0, "componentType" : 5126, "normalized" : false, "count" : 168, "type" : "SCALAR", "max" : [5.566666666666667], "min" : [0]}, {"bufferView" : 61, "componentType" : 5126, "count" : 168, "type" : "VEC4"}, {"bufferView" : 62, "byteOffset" : 0, "componentType" : 5126, "normalized" : false, "count" : 168, "type" : "SCALAR", "max" : [5.566666666666667], "min" : [0]}, {"bufferView" : 63, "componentType" : 5126, "count" : 168, "type" : "VEC4"}, {"bufferView" : 64, "byteOffset" : 0, "componentType" : 5126, "normalized" : false, "count" : 168, "type" : "SCALAR", "max" : [5.566666666666667], "min" : [0]}, {"bufferView" : 65, "componentType" : 5126, "count" : 168, "type" : "VEC4"}, {"bufferView" : 66, "byteOffset" : 0, "componentType" : 5126, "normalized" : false, "count" : 168, "type" : "SCALAR", "max" : [5.566666666666667], "min" : [0]}, {"bufferView" : 67, "componentType" : 5126, "count" : 168, "type" : "VEC4"}, {"bufferView" : 68, "byteOffset" : 0, "componentType" : 5126, "normalized" : false, "count" : 168, "type" : "SCALAR", "max" : [5.566666666666667], "min" : [0]}, {"bufferView" : 69, "componentType" : 5126, "count" : 168, "type" : "VEC4"}, {"bufferView" : 70, "byteOffset" : 0, "componentType" : 5126, "normalized" : false, "count" : 168, "type" : "SCALAR", "max" : [5.566666666666667], "min" : [0]}, {"bufferView" : 71, "componentType" : 5126, "count" : 168, "type" : "VEC4"}, {"bufferView" : 72, "byteOffset" : 0, "componentType" : 5126, "normalized" : false, "count" : 1, "type" : "SCALAR", "max" : [0], "min" : [0]}, {"bufferView" : 73, "componentType" : 5126, "count" : 1, "type" : "VEC4"}, {"bufferView" : 74, "byteOffset" : 0, "componentType" : 5126, "normalized" : false, "count" : 168, "type" : "SCALAR", "max" : [5.566666666666667], "min" : [0]}, {"bufferView" : 75, "componentType" : 5126, "count" : 168, "type" : "VEC4"}, {"bufferView" : 76, "byteOffset" : 0, "componentType" : 5126, "normalized" : false, "count" : 168, "type" : "SCALAR", "max" : [5.566666666666667], "min" : [0]}, {"bufferView" : 77, "componentType" : 5126, "count" : 168, "type" : "VEC4"}, {"bufferView" : 78, "byteOffset" : 0, "componentType" : 5126, "normalized" : false, "count" : 1, "type" : "SCALAR", "max" : [0], "min" : [0]}, {"bufferView" : 79, "componentType" : 5126, "count" : 1, "type" : "VEC4"}, {"bufferView" : 80, "byteOffset" : 0, "componentType" : 5126, "normalized" : false, "count" : 168, "type" : "SCALAR", "max" : [5.566666666666667], "min" : [0]}, {"bufferView" : 81, "componentType" : 5126, "count" : 168, "type" : "VEC4"}, {"bufferView" : 82, "byteOffset" : 0, "componentType" : 5126, "normalized" : false, "count" : 168, "type" : "SCALAR", "max" : [5.566666666666667], "min" : [0]}, {"bufferView" : 83, "componentType" : 5126, "count" : 168, "type" : "VEC4"}, {"bufferView" : 84, "byteOffset" : 0, "componentType" : 5126, "normalized" : false, "count" : 1, "type" : "SCALAR", "max" : [0], "min" : [0]}, {"bufferView" : 85, "componentType" : 5126, "count" : 1, "type" : "VEC4"}, {"bufferView" : 86, "byteOffset" : 0, "componentType" : 5126, "normalized" : false, "count" : 168, "type" : "SCALAR", "max" : [5.566666666666667], "min" : [0]}, {"bufferView" : 87, "componentType" : 5126, "count" : 168, "type" : "VEC4"}, {"bufferView" : 88, "byteOffset" : 0, "componentType" : 5126, "normalized" : false, "count" : 168, "type" : "SCALAR", "max" : [5.566666666666667], "min" : [0]}, {"bufferView" : 89, "componentType" : 5126, "count" : 168, "type" : "VEC4"}, {"bufferView" : 90, "byteOffset" : 0, "componentType" : 5126, "normalized" : false, "count" : 1, "type" : "SCALAR", "max" : [0], "min" : [0]}, {"bufferView" : 91, "componentType" : 5126, "count" : 1, "type" : "VEC4"}, {"bufferView" : 92, "byteOffset" : 0, "componentType" : 5126, "normalized" : false, "count" : 168, "type" : "SCALAR", "max" : [5.566666666666667], "min" : [0]}, {"bufferView" : 93, "componentType" : 5126, "count" : 168, "type" : "VEC4"}, {"bufferView" : 94, "byteOffset" : 0, "componentType" : 5126, "normalized" : false, "count" : 168, "type" : "SCALAR", "max" : [5.566666666666667], "min" : [0]}, {"bufferView" : 95, "componentType" : 5126, "count" : 168, "type" : "VEC4"}, {"bufferView" : 96, "byteOffset" : 0, "componentType" : 5126, "normalized" : false, "count" : 1, "type" : "SCALAR", "max" : [0], "min" : [0]}, {"bufferView" : 97, "componentType" : 5126, "count" : 1, "type" : "VEC4"}, {"bufferView" : 98, "byteOffset" : 0, "componentType" : 5126, "normalized" : false, "count" : 168, "type" : "SCALAR", "max" : [5.566666666666667], "min" : [0]}, {"bufferView" : 99, "componentType" : 5126, "count" : 168, "type" : "VEC4"}, {"bufferView" : 100, "byteOffset" : 0, "componentType" : 5126, "normalized" : false, "count" : 168, "type" : "SCALAR", "max" : [5.566666666666667], "min" : [0]}, {"bufferView" : 101, "componentType" : 5126, "count" : 168, "type" : "VEC4"}, {"bufferView" : 102, "byteOffset" : 0, "componentType" : 5126, "normalized" : false, "count" : 168, "type" : "SCALAR", "max" : [5.566666666666667], "min" : [0]}, {"bufferView" : 103, "componentType" : 5126, "count" : 168, "type" : "VEC4"}, {"bufferView" : 104, "byteOffset" : 0, "componentType" : 5126, "normalized" : false, "count" : 168, "type" : "SCALAR", "max" : [5.566666666666667], "min" : [0]}, {"bufferView" : 105, "componentType" : 5126, "count" : 168, "type" : "VEC4"}, {"bufferView" : 106, "byteOffset" : 0, "componentType" : 5126, "normalized" : false, "count" : 168, "type" : "SCALAR", "max" : [5.566666666666667], "min" : [0]}, {"bufferView" : 107, "componentType" : 5126, "count" : 168, "type" : "VEC4"}, {"bufferView" : 108, "byteOffset" : 0, "componentType" : 5126, "normalized" : false, "count" : 168, "type" : "SCALAR", "max" : [5.566666666666667], "min" : [0]}, {"bufferView" : 109, "componentType" : 5126, "count" : 168, "type" : "VEC4"}, {"bufferView" : 110, "byteOffset" : 0, "componentType" : 5126, "normalized" : false, "count" : 168, "type" : "SCALAR", "max" : [5.566666666666667], "min" : [0]}, {"bufferView" : 111, "componentType" : 5126, "count" : 168, "type" : "VEC4"}, {"bufferView" : 112, "byteOffset" : 0, "componentType" : 5126, "normalized" : false, "count" : 168, "type" : "SCALAR", "max" : [5.566666666666667], "min" : [0]}, {"bufferView" : 113, "componentType" : 5126, "count" : 168, "type" : "VEC4"}], "animations" : [{"channels" : [{"sampler" : 0, "target" : {"node" : 0, "path" : "translation"}}, {"sampler" : 1, "target" : {"node" : 0, "path" : "rotation"}}, {"sampler" : 2, "target" : {"node" : 1, "path" : "rotation"}}, {"sampler" : 3, "target" : {"node" : 2, "path" : "rotation"}}, {"sampler" : 4, "target" : {"node" : 3, "path" : "rotation"}}, {"sampler" : 5, "target" : {"node" : 4, "path" : "rotation"}}, {"sampler" : 6, "target" : {"node" : 5, "path" : "rotation"}}, {"sampler" : 7, "target" : {"node" : 6, "path" : "rotation"}}, {"sampler" : 8, "target" : {"node" : 7, "path" : "rotation"}}, {"sampler" : 9, "target" : {"node" : 8, "path" : "rotation"}}, {"sampler" : 10, "target" : {"node" : 9, "path" : "rotation"}}, {"sampler" : 11, "target" : {"node" : 10, "path" : "rotation"}}, {"sampler" : 12, "target" : {"node" : 11, "path" : "rotation"}}, {"sampler" : 13, "target" : {"node" : 12, "path" : "rotation"}}, {"sampler" : 14, "target" : {"node" : 13, "path" : "rotation"}}, {"sampler" : 15, "target" : {"node" : 14, "path" : "rotation"}}, {"sampler" : 16, "target" : {"node" : 15, "path" : "rotation"}}, {"sampler" : 17, "target" : {"node" : 16, "path" : "rotation"}}, {"sampler" : 18, "target" : {"node" : 17, "path" : "rotation"}}, {"sampler" : 19, "target" : {"node" : 18, "path" : "rotation"}}, {"sampler" : 20, "target" : {"node" : 19, "path" : "rotation"}}, {"sampler" : 21, "target" : {"node" : 20, "path" : "rotation"}}, {"sampler" : 22, "target" : {"node" : 21, "path" : "rotation"}}, {"sampler" : 23, "target" : {"node" : 22, "path" : "rotation"}}, {"sampler" : 24, "target" : {"node" : 23, "path" : "rotation"}}, {"sampler" : 25, "target" : {"node" : 24, "path" : "rotation"}}, {"sampler" : 26, "target" : {"node" : 25, "path" : "rotation"}}, {"sampler" : 27, "target" : {"node" : 26, "path" : "rotation"}}, {"sampler" : 28, "target" : {"node" : 27, "path" : "rotation"}}, {"sampler" : 29, "target" : {"node" : 28, "path" : "rotation"}}, {"sampler" : 30, "target" : {"node" : 29, "path" : "rotation"}}, {"sampler" : 31, "target" : {"node" : 30, "path" : "rotation"}}, {"sampler" : 32, "target" : {"node" : 31, "path" : "rotation"}}, {"sampler" : 33, "target" : {"node" : 32, "path" : "rotation"}}, {"sampler" : 34, "target" : {"node" : 33, "path" : "rotation"}}, {"sampler" : 35, "target" : {"node" : 34, "path" : "rotation"}}, {"sampler" : 36, "target" : {"node" : 35, "path" : "rotation"}}, {"sampler" : 37, "target" : {"node" : 36, "path" : "rotation"}}, {"sampler" : 38, "target" : {"node" : 37, "path" : "rotation"}}, {"sampler" : 39, "target" : {"node" : 38, "path" : "rotation"}}, {"sampler" : 40, "target" : {"node" : 39, "path" : "rotation"}}, {"sampler" : 41, "target" : {"node" : 40, "path" : "rotation"}}, {"sampler" : 42, "target" : {"node" : 41, "path" : "rotation"}}, {"sampler" : 43, "target" : {"node" : 42, "path" : "rotation"}}, {"sampler" : 44, "target" : {"node" : 43, "path" : "rotation"}}, {"sampler" : 45, "target" : {"node" : 44, "path" : "rotation"}}, {"sampler" : 46, "target" : {"node" : 45, "path" : "rotation"}}, {"sampler" : 47, "target" : {"node" : 46, "path" : "rotation"}}, {"sampler" : 48, "target" : {"node" : 47, "path" : "rotation"}}, {"sampler" : 49, "target" : {"node" : 48, "path" : "rotation"}}, {"sampler" : 50, "target" : {"node" : 49, "path" : "rotation"}}, {"sampler" : 51, "target" : {"node" : 50, "path" : "rotation"}}, {"sampler" : 52, "target" : {"node" : 51, "path" : "rotation"}}, {"sampler" : 53, "target" : {"node" : 52, "path" : "rotation"}}, {"sampler" : 54, "target" : {"node" : 53, "path" : "rotation"}}, {"sampler" : 55, "target" : {"node" : 54, "path" : "rotation"}}, {"sampler" : 56, "target" : {"node" : 55, "path" : "rotation"}}], "samplers" : [{"input" : 0, "interpolation" : "LINEAR", "output" : 1}, {"input" : 2, "interpolation" : "LINEAR", "output" : 3}, {"input" : 4, "interpolation" : "LINEAR", "output" : 5}, {"input" : 6, "interpolation" : "LINEAR", "output" : 7}, {"input" : 8, "interpolation" : "LINEAR", "output" : 9}, {"input" : 10, "interpolation" : "LINEAR", "output" : 11}, {"input" : 12, "interpolation" : "LINEAR", "output" : 13}, {"input" : 14, "interpolation" : "LINEAR", "output" : 15}, {"input" : 16, "interpolation" : "LINEAR", "output" : 17}, {"input" : 18, "interpolation" : "LINEAR", "output" : 19}, {"input" : 20, "interpolation" : "LINEAR", "output" : 21}, {"input" : 22, "interpolation" : "LINEAR", "output" : 23}, {"input" : 24, "interpolation" : "LINEAR", "output" : 25}, {"input" : 26, "interpolation" : "LINEAR", "output" : 27}, {"input" : 28, "interpolation" : "LINEAR", "output" : 29}, {"input" : 30, "interpolation" : "LINEAR", "output" : 31}, {"input" : 32, "interpolation" : "LINEAR", "output" : 33}, {"input" : 34, "interpolation" : "LINEAR", "output" : 35}, {"input" : 36, "interpolation" : "LINEAR", "output" : 37}, {"input" : 38, "interpolation" : "LINEAR", "output" : 39}, {"input" : 40, "interpolation" : "LINEAR", "output" : 41}, {"input" : 42, "interpolation" : "LINEAR", "output" : 43}, {"input" : 44, "interpolation" : "LINEAR", "output" : 45}, {"input" : 46, "interpolation" : "LINEAR", "output" : 47}, {"input" : 48, "interpolation" : "LINEAR", "output" : 49}, {"input" : 50, "interpolation" : "LINEAR", "output" : 51}, {"input" : 52, "interpolation" : "LINEAR", "output" : 53}, {"input" : 54, "interpolation" : "LINEAR", "output" : 55}, {"input" : 56, "interpolation" : "LINEAR", "output" : 57}, {"input" : 58, "interpolation" : "LINEAR", "output" : 59}, {"input" : 60, "interpolation" : "LINEAR", "output" : 61}, {"input" : 62, "interpolation" : "LINEAR", "output" : 63}, {"input" : 64, "interpolation" : "LINEAR", "output" : 65}, {"input" : 66, "interpolation" : "LINEAR", "output" : 67}, {"input" : 68, "interpolation" : "LINEAR", "output" : 69}, {"input" : 70, "interpolation" : "LINEAR", "output" : 71}, {"input" : 72, "interpolation" : "LINEAR", "output" : 73}, {"input" : 74, "interpolation" : "LINEAR", "output" : 75}, {"input" : 76, "interpolation" : "LINEAR", "output" : 77}, {"input" : 78, "interpolation" : "LINEAR", "output" : 79}, {"input" : 80, "interpolation" : "LINEAR", "output" : 81}, {"input" : 82, "interpolation" : "LINEAR", "output" : 83}, {"input" : 84, "interpolation" : "LINEAR", "output" : 85}, {"input" : 86, "interpolation" : "LINEAR", "output" : 87}, {"input" : 88, "interpolation" : "LINEAR", "output" : 89}, {"input" : 90, "interpolation" : "LINEAR", "output" : 91}, {"input" : 92, "interpolation" : "LINEAR", "output" : 93}, {"input" : 94, "interpolation" : "LINEAR", "output" : 95}, {"input" : 96, "interpolation" : "LINEAR", "output" : 97}, {"input" : 98, "interpolation" : "LINEAR", "output" : 99}, {"input" : 100, "interpolation" : "LINEAR", "output" : 101}, {"input" : 102, "interpolation" : "LINEAR", "output" : 103}, {"input" : 104, "interpolation" : "LINEAR", "output" : 105}, {"input" : 106, "interpolation" : "LINEAR", "output" : 107}, {"input" : 108, "interpolation" : "LINEAR", "output" : 109}, {"input" : 110, "interpolation" : "LINEAR", "output" : 111}, {"input" : 112, "interpolation" : "LINEAR", "output" : 113}], "name" : "mixamo.com"}], "asset" : {"generator" : "Aspose.3D 25.11.0", "version" : "2.0"}, "buffers" : [{"uri" : "data:application/octet-stream;base64,", "byteLength" : 144544}], "bufferViews" : [{"buffer" : 0, "byteOffset" : 0, "byteLength" : 672}, {"buffer" : 0, "byteOffset" : 676, "byteLength" : 2016}, {"buffer" : 0, "byteOffset" : 2696, "byteLength" : 672}, {"buffer" : 0, "byteOffset" : 3372, "byteLength" : 2688}, {"buffer" : 0, "byteOffset" : 6064, "byteLength" : 672}, {"buffer" : 0, "byteOffset" : 6740, "byteLength" : 2688}, {"buffer" : 0, "byteOffset" : 9432, "byteLength" : 672}, {"buffer" : 0, "byteOffset" : 10108, "byteLength" : 2688}, {"buffer" : 0, "byteOffset" : 12800, "byteLength" : 672}, {"buffer" : 0, "byteOffset" : 13476, "byteLength" : 2688}, {"buffer" : 0, "byteOffset" : 16168, "byteLength" : 672}, {"buffer" : 0, "byteOffset" : 16844, "byteLength" : 2688}, {"buffer" : 0, "byteOffset" : 19536, "byteLength" : 672}, {"buffer" : 0, "byteOffset" : 20212, "byteLength" : 2688}, {"buffer" : 0, "byteOffset" : 22904, "byteLength" : 672}, {"buffer" : 0, "byteOffset" : 23580, "byteLength" : 2688}, {"buffer" : 0, "byteOffset" : 26272, "byteLength" : 672}, {"buffer" : 0, "byteOffset" : 26948, "byteLength" : 2688}, {"buffer" : 0, "byteOffset" : 29640, "byteLength" : 672}, {"buffer" : 0, "byteOffset" : 30316, "byteLength" : 2688}, {"buffer" : 0, "byteOffset" : 33008, "byteLength" : 672}, {"buffer" : 0, "byteOffset" : 33684, "byteLength" : 2688}, {"buffer" : 0, "byteOffset" : 36376, "byteLength" : 672}, {"buffer" : 0, "byteOffset" : 37052, "byteLength" : 2688}, {"buffer" : 0, "byteOffset" : 39744, "byteLength" : 672}, {"buffer" : 0, "byteOffset" : 40420, "byteLength" : 2688}, {"buffer" : 0, "byteOffset" : 43112, "byteLength" : 4}, {"buffer" : 0, "byteOffset" : 43120, "byteLength" : 16}, {"buffer" : 0, "byteOffset" : 43140, "byteLength" : 672}, {"buffer" : 0, "byteOffset" : 43816, "byteLength" : 2688}, {"buffer" : 0, "byteOffset" : 46508, "byteLength" : 672}, {"buffer" : 0, "byteOffset" : 47184, "byteLength" : 2688}, {"buffer" : 0, "byteOffset" : 49876, "byteLength" : 4}, {"buffer" : 0, "byteOffset" : 49884, "byteLength" : 16}, {"buffer" : 0, "byteOffset" : 49904, "byteLength" : 672}, {"buffer" : 0, "byteOffset" : 50580, "byteLength" : 2688}, {"buffer" : 0, "byteOffset" : 53272, "byteLength" : 672}, {"buffer" : 0, "byteOffset" : 53948, "byteLength" : 2688}, {"buffer" : 0, "byteOffset" : 56640, "byteLength" : 4}, {"buffer" : 0, "byteOffset" : 56648, "byteLength" : 16}, {"buffer" : 0, "byteOffset" : 56668, "byteLength" : 672}, {"buffer" : 0, "byteOffset" : 57344, "byteLength" : 2688}, {"buffer" : 0, "byteOffset" : 60036, "byteLength" : 672}, {"buffer" : 0, "byteOffset" : 60712, "byteLength" : 2688}, {"buffer" : 0, "byteOffset" : 63404, "byteLength" : 4}, {"buffer" : 0, "byteOffset" : 63412, "byteLength" : 16}, {"buffer" : 0, "byteOffset" : 63432, "byteLength" : 672}, {"buffer" : 0, "byteOffset" : 64108, "byteLength" : 2688}, {"buffer" : 0, "byteOffset" : 66800, "byteLength" : 672}, {"buffer" : 0, "byteOffset" : 67476, "byteLength" : 2688}, {"buffer" : 0, "byteOffset" : 70168, "byteLength" : 4}, {"buffer" : 0, "byteOffset" : 70176, "byteLength" : 16}, {"buffer" : 0, "byteOffset" : 70196, "byteLength" : 4}, {"buffer" : 0, "byteOffset" : 70204, "byteLength" : 16}, {"buffer" : 0, "byteOffset" : 70224, "byteLength" : 4}, {"buffer" : 0, "byteOffset" : 70232, "byteLength" : 16}, {"buffer" : 0, "byteOffset" : 70252, "byteLength" : 4}, {"buffer" : 0, "byteOffset" : 70260, "byteLength" : 16}, {"buffer" : 0, "byteOffset" : 70280, "byteLength" : 4}, {"buffer" : 0, "byteOffset" : 70288, "byteLength" : 16}, {"buffer" : 0, "byteOffset" : 70308, "byteLength" : 672}, {"buffer" : 0, "byteOffset" : 70984, "byteLength" : 2688}, {"buffer" : 0, "byteOffset" : 73676, "byteLength" : 672}, {"buffer" : 0, "byteOffset" : 74352, "byteLength" : 2688}, {"buffer" : 0, "byteOffset" : 77044, "byteLength" : 672}, {"buffer" : 0, "byteOffset" : 77720, "byteLength" : 2688}, {"buffer" : 0, "byteOffset" : 80412, "byteLength" : 672}, {"buffer" : 0, "byteOffset" : 81088, "byteLength" : 2688}, {"buffer" : 0, "byteOffset" : 83780, "byteLength" : 672}, {"buffer" : 0, "byteOffset" : 84456, "byteLength" : 2688}, {"buffer" : 0, "byteOffset" : 87148, "byteLength" : 672}, {"buffer" : 0, "byteOffset" : 87824, "byteLength" : 2688}, {"buffer" : 0, "byteOffset" : 90516, "byteLength" : 4}, {"buffer" : 0, "byteOffset" : 90524, "byteLength" : 16}, {"buffer" : 0, "byteOffset" : 90544, "byteLength" : 672}, {"buffer" : 0, "byteOffset" : 91220, "byteLength" : 2688}, {"buffer" : 0, "byteOffset" : 93912, "byteLength" : 672}, {"buffer" : 0, "byteOffset" : 94588, "byteLength" : 2688}, {"buffer" : 0, "byteOffset" : 97280, "byteLength" : 4}, {"buffer" : 0, "byteOffset" : 97288, "byteLength" : 16}, {"buffer" : 0, "byteOffset" : 97308, "byteLength" : 672}, {"buffer" : 0, "byteOffset" : 97984, "byteLength" : 2688}, {"buffer" : 0, "byteOffset" : 100676, "byteLength" : 672}, {"buffer" : 0, "byteOffset" : 101352, "byteLength" : 2688}, {"buffer" : 0, "byteOffset" : 104044, "byteLength" : 4}, {"buffer" : 0, "byteOffset" : 104052, "byteLength" : 16}, {"buffer" : 0, "byteOffset" : 104072, "byteLength" : 672}, {"buffer" : 0, "byteOffset" : 104748, "byteLength" : 2688}, {"buffer" : 0, "byteOffset" : 107440, "byteLength" : 672}, {"buffer" : 0, "byteOffset" : 108116, "byteLength" : 2688}, {"buffer" : 0, "byteOffset" : 110808, "byteLength" : 4}, {"buffer" : 0, "byteOffset" : 110816, "byteLength" : 16}, {"buffer" : 0, "byteOffset" : 110836, "byteLength" : 672}, {"buffer" : 0, "byteOffset" : 111512, "byteLength" : 2688}, {"buffer" : 0, "byteOffset" : 114204, "byteLength" : 672}, {"buffer" : 0, "byteOffset" : 114880, "byteLength" : 2688}, {"buffer" : 0, "byteOffset" : 117572, "byteLength" : 4}, {"buffer" : 0, "byteOffset" : 117580, "byteLength" : 16}, {"buffer" : 0, "byteOffset" : 117600, "byteLength" : 672}, {"buffer" : 0, "byteOffset" : 118276, "byteLength" : 2688}, {"buffer" : 0, "byteOffset" : 120968, "byteLength" : 672}, {"buffer" : 0, "byteOffset" : 121644, "byteLength" : 2688}, {"buffer" : 0, "byteOffset" : 124336, "byteLength" : 672}, {"buffer" : 0, "byteOffset" : 125012, "byteLength" : 2688}, {"buffer" : 0, "byteOffset" : 127704, "byteLength" : 672}, {"buffer" : 0, "byteOffset" : 128380, "byteLength" : 2688}, {"buffer" : 0, "byteOffset" : 131072, "byteLength" : 672}, {"buffer" : 0, "byteOffset" : 131748, "byteLength" : 2688}, {"buffer" : 0, "byteOffset" : 134440, "byteLength" : 672}, {"buffer" : 0, "byteOffset" : 135116, "byteLength" : 2688}, {"buffer" : 0, "byteOffset" : 137808, "byteLength" : 672}, {"buffer" : 0, "byteOffset" : 138484, "byteLength" : 2688}, {"buffer" : 0, "byteOffset" : 141176, "byteLength" : 672}, {"buffer" : 0, "byteOffset" : 141852, "byteLength" : 2688}], "nodes" : [{"rotation" : [0, 0, 0, 1], "scale" : [1, 1, 1], "translation" : [0, 87.1622, 0], "name" : "mixamorig:Hips"}, {"rotation" : [0.03006923526866491, 0, 0, 0.9995478183110389], "scale" : [1, 1, 1], "translation" : [0, 7.8484, 3.9183], "name" : "mixamorig:Spine"}, {"rotation" : [-0.09849130971427107, 0, 0, 0.9951379110006651], "scale" : [1, 1, 1], "translation" : [-0, 11.4604, -0], "name" : "mixamorig:Spine1"}, {"rotation" : [0.06852373777684975, 0, 0, 0.997649486223037], "scale" : [1, 1, 1], "translation" : [0, 13.1777, -0], "name" : "mixamorig:Spine2"}, {"rotation" : [0, 0, 0, 1], "scale" : [1, 1, 1], "translation" : [0, 14.1369, -5.2589], "name" : "mixamorig:Neck"}, {"rotation" : [0, 0, 0, 1], "scale" : [1, 1, 1], "translation" : [-0, 10.4307, -0.8280000000000001], "name" : "mixamorig:Head"}, {"rotation" : [0.4294146153831122, 0.6011390619002497, -0.5194480680384436, 0.4294282489126565], "scale" : [1, 1, 1], "translation" : [4.7652, 7.3239, -1.9729], "name" : "mixamorig:LeftShoulder"}, {"rotation" : [0.05733676602384607, 0.007534632365452529, 0.1300719439716563, 0.9898166567443079], "scale" : [1, 1, 1], "translation" : [0, 8.4242, 0], "name" : "mixamorig:LeftArm"}, {"rotation" : [0, 0, 0, 1], "scale" : [1, 1, 1], "translation" : [-0, 31.2922, -0], "name" : "mixamorig:LeftForeArm"}, {"rotation" : [-0.0001596858650759715, 0.00045096131776090065, 6.213992381823938E-06, 0.9999998855478438], "scale" : [1, 1, 1], "translation" : [0, 31.7237, -0], "name" : "mixamorig:LeftHand"}, {"rotation" : [0.22147724859537013, 0.0720275156198786, 0.2548820413890107, 0.9385067982309044], "scale" : [1, 1, 1], "translation" : [-4.4165, 2.9026, 2.5604], "name" : "mixamorig:LeftHandThumb1"}, {"rotation" : [-3.053113317719181E-16, 0, 0, 1], "scale" : [1, 1, 1], "translation" : [0, 3.0207, -0], "name" : "mixamorig:LeftHandThumb2"}, {"rotation" : [-1.0685896612017132E-15, 8.008016708762125E-31, -7.494005416219806E-16, 1], "scale" : [1, 1, 1], "translation" : [0, 2.8657, -0], "name" : "mixamorig:LeftHandThumb3"}, {"rotation" : [0.00015969142089557504, 6.967852704252916E-10, -6.141977616029558E-06, 0.9999999872304632], "scale" : [1, 1, 1], "translation" : [-3.1199, 8.5851, 0.6446000000000001], "name" : "mixamorig:LeftHandIndex1"}, {"rotation" : [5.569986335557245E-16, -2.284630671245095E-12, -4.0917918367711534E-18, 0.9999999999999999], "scale" : [1, 1, 1], "translation" : [0, 3.3485, 0], "name" : "mixamorig:LeftHandIndex2"}, {"rotation" : [1.4210522260588733E-15, -6.092348391010605E-12, 2.7937936596975446E-17, 1.0000000000000002], "scale" : [1, 1, 1], "translation" : [0, 3.3145, -0], "name" : "mixamorig:LeftHandIndex3"}, {"rotation" : [0.00015969142089922438, 5.742403380649117E-10, -6.141977635582302E-06, 0.9999999872304633], "scale" : [1, 1, 1], "translation" : [0.0001, 8.1407, 0.0026000000000000003], "name" : "mixamorig:LeftHandMiddle1"}, {"rotation" : [5.528552174137839E-16, -1.8277045221248826E-11, -2.6211711631835227E-17, 1.0000000000000004], "scale" : [1, 1, 1], "translation" : [0, 4.1663, -0], "name" : "mixamorig:LeftHandMiddle2"}, {"rotation" : [-5.77437418969368E-16, -4.5692613006227166E-11, 2.8984651033319957E-17, 1.0000000000000002], "scale" : [1, 1, 1], "translation" : [0, 3.0181, -0], "name" : "mixamorig:LeftHandMiddle3"}, {"rotation" : [0.0001596914209043523, -2.1439546765197357E-11, -6.1419777307366325E-06, 0.999999987230463], "scale" : [1, 1, 1], "translation" : [2.8842, 8.5878, 0.034], "name" : "mixamorig:LeftHandRing1"}, {"rotation" : [-1.2827864447322667E-15, -4.525456979984633E-20, -1.0748424584183444E-17, 1], "scale" : [1, 1, 1], "translation" : [0, 3.6712, 0], "name" : "mixamorig:LeftHandRing2"}, {"rotation" : [7.412069912422018E-16, -9.13852255883095E-12, 1.1804524166020997E-17, 1], "scale" : [1, 1, 1], "translation" : [0, 2.7288, -0], "name" : "mixamorig:LeftHandRing3"}, {"rotation" : [0.0001596914209038653, 1.3935705409168673E-10, -6.141977705014252E-06, 0.9999999872304633], "scale" : [1, 1, 1], "translation" : [5.2131, 7.8706, 0.6778000000000001], "name" : "mixamorig:LeftHandPinky1"}, {"rotation" : [-8.855905225427739E-16, -3.426945966597761E-11, -7.820794040043545E-17, 0.9999999999999999], "scale" : [1, 1, 1], "translation" : [0, 3.0685000000000002, 0], "name" : "mixamorig:LeftHandPinky2"}, {"rotation" : [6.308751056313058E-16, -3.807717751556399E-11, 1.0850401571470478E-16, 0.9999999999999999], "scale" : [1, 1, 1], "translation" : [0, 2.396, -0], "name" : "mixamorig:LeftHandPinky3"}, {"rotation" : [0.9075174034989512, -0.00014572033498626107, -6.744184280292389E-05, 0.4200144480416166], "scale" : [1, 1, 1], "translation" : [-0.0001, 11.4539, -0.0099], "name" : "mixamorig:Whistle0"}, {"rotation" : [0.17203053983409122, 5.344703831956042E-05, -6.425770822072469E-05, 0.985091613190749], "scale" : [1, 1, 1], "translation" : [-0, 9.8116, -0], "name" : "mixamorig:Whistle1"}, {"rotation" : [-5.9499892970393234E-05, 0.3964061305908547, -0.9180752458815574, 0.00013780154910142137], "scale" : [1, 1, 1], "translation" : [0.0014, 14.4305, -5.4232], "name" : "mixamorig:Hood0"}, {"rotation" : [0.4376949111319479, 5.7013794648605765E-05, -0.00015004655435654952, 0.8991235393452086], "scale" : [1, 1, 1], "translation" : [0, 8.0992, 0], "name" : "mixamorig:Hood1"}, {"rotation" : [-0.02772407646831401, -0.9711371119857339, 0.23527760862956884, 0.0277224130540327], "scale" : [1, 1, 1], "translation" : [-4.7652, 7.3238, -1.9729], "name" : "mixamorig:RightShoulder"}, {"rotation" : [0.057343747040241616, -0.0075355497417840655, -0.13007189082786993, 0.9898162523326925], "scale" : [1, 1, 1], "translation" : [-0, 8.4242, 0], "name" : "mixamorig:RightArm"}, {"rotation" : [1.3755789503223084E-34, 4.8140798107324894E-52, 3.499675398205617E-18, 1], "scale" : [1, 1, 1], "translation" : [0, 31.2922, 0], "name" : "mixamorig:RightForeArm"}, {"rotation" : [-0.00018425399132021, -0.00043315598507565485, -6.2217906821711745E-06, 0.9999998891938183], "scale" : [1, 1, 1], "translation" : [-0, 31.7236, -0], "name" : "mixamorig:RightHand"}, {"rotation" : [0.22156625328981192, -0.06910107262149627, -0.2542346598990501, 0.9388813422747776], "scale" : [1, 1, 1], "translation" : [4.4165, 2.9027000000000003, 2.561], "name" : "mixamorig:RightHandThumb1"}, {"rotation" : [-4.7144499969216596E-15, -7.904822167871257E-10, -8.819362364108061E-16, 1], "scale" : [1, 1, 1], "translation" : [0, 3.0207, 0], "name" : "mixamorig:RightHandThumb2"}, {"rotation" : [2.1630374105033566E-15, 5.696345863591015E-10, 9.729469012366475E-16, 1], "scale" : [1, 1, 1], "translation" : [0, 2.8654, -0], "name" : "mixamorig:RightHandThumb3"}, {"rotation" : [0.0001842593294669905, -8.039829943277697E-10, 6.141977501286805E-06, 0.9999999830053877], "scale" : [1, 1, 1], "translation" : [3.1199, 8.5851, 0.645], "name" : "mixamorig:RightHandIndex1"}, {"rotation" : [-5.162226632250823E-16, -1.1202413130652557E-19, 1.989299228274087E-17, 1], "scale" : [1, 1, 1], "translation" : [0, 3.3486000000000002, -0], "name" : "mixamorig:RightHandIndex2"}, {"rotation" : [1.6197932224151293E-15, -7.965376106016512E-20, -1.443005328942426E-17, 1.0000000000000004], "scale" : [1, 1, 1], "translation" : [0, 3.3145, 0], "name" : "mixamorig:RightHandIndex3"}, {"rotation" : [0.00018425932947001785, -6.431863954778739E-10, 6.141977530922862E-06, 0.9999999830053876], "scale" : [1, 1, 1], "translation" : [-0.0001, 8.1407, 0.003], "name" : "mixamorig:RightHandMiddle1"}, {"rotation" : [-9.834454474788259E-16, -3.4328722144318004E-21, -7.011315220897471E-18, 1.0000000000000004], "scale" : [1, 1, 1], "translation" : [0, 4.1663, 0], "name" : "mixamorig:RightHandMiddle2"}, {"rotation" : [4.960679037577652E-16, -5.940491956378076E-20, 1.782750244086126E-17, 1.0000000000000004], "scale" : [1, 1, 1], "translation" : [0, 3.0181, -0], "name" : "mixamorig:RightHandMiddle3"}, {"rotation" : [0.00018425932947227632, -3.2159319784089984E-10, 6.141977590219026E-06, 0.999999983005388], "scale" : [1, 1, 1], "translation" : [-2.8842, 8.5878, 0.034], "name" : "mixamorig:RightHandRing1"}, {"rotation" : [5.044048381005535E-16, -1.5998926831597606E-19, -7.867453772334755E-17, 1], "scale" : [1, 1, 1], "translation" : [0, 3.6712, 0], "name" : "mixamorig:RightHandRing2"}, {"rotation" : [1.0700840249336786E-15, -6.168070442696916E-20, 9.712037421570445E-17, 1], "scale" : [1, 1, 1], "translation" : [0, 2.7288, 0], "name" : "mixamorig:RightHandRing3"}, {"rotation" : [0.00018425932947502087, -1.0702889945823625E-19, 6.14197764949246E-06, 0.9999999830053877], "scale" : [1, 1, 1], "translation" : [-5.2131, 7.8707, 0.678], "name" : "mixamorig:RightHandPinky1"}, {"rotation" : [3.1470685306098336E-16, 6.5912049165206144E-21, -1.3058876354409E-16, 1], "scale" : [1, 1, 1], "translation" : [-0, 3.0685000000000002, -0], "name" : "mixamorig:RightHandPinky2"}, {"rotation" : [1.2132538993458835E-16, -2.541033024423506E-21, 7.099830163885545E-18, 1], "scale" : [1, 1, 1], "translation" : [0, 2.396, -0], "name" : "mixamorig:RightHandPinky3"}, {"rotation" : [8.351097393315277E-20, -0.012978776578618872, -0.9999157721320943, 6.4338837698643534E-18], "scale" : [1, 1, 1], "translation" : [11.867, -9.3764, -2.4394], "name" : "mixamorig:LeftUpLeg"}, {"rotation" : [-0.06029507526856707, 0, 0, 0.998180596835241], "scale" : [1, 1, 1], "translation" : [-0, 32.9203, -0], "name" : "mixamorig:LeftLeg"}, {"rotation" : [0.44220415999013124, 3.8589592791175196E-07, 7.827054889183531E-07, 0.8969144222759833], "scale" : [1, 1, 1], "translation" : [0, 32.0675, 0], "name" : "mixamorig:LeftFoot"}, {"rotation" : [0.3746341033497736, 0, 0, 0.9271727393572954], "scale" : [1, 1, 1], "translation" : [0, 19, -0], "name" : "mixamorig:LeftToeBase"}, {"rotation" : [8.351097393315277E-20, -0.012978776578618872, -0.9999157721320943, 6.4338837698643534E-18], "scale" : [1, 1, 1], "translation" : [-11.867, -9.3764, -2.4394], "name" : "mixamorig:RightUpLeg"}, {"rotation" : [-0.06029507526856707, 0, 0, 0.998180596835241], "scale" : [1, 1, 1], "translation" : [-0, 32.9203, 0], "name" : "mixamorig:RightLeg"}, {"rotation" : [0.4422065081050826, 3.85897977028608E-07, 7.82704478642494E-07, 0.8969132645851259], "scale" : [1, 1, 1], "translation" : [0, 32.0675, -0], "name" : "mixamorig:RightFoot"}, {"rotation" : [0.3746341033497736, 0, 0, 0.9271727393572954], "scale" : [1, 1, 1], "translation" : [-0, 19, -0], "name" : "mixamorig:RightToeBase"}], "scene" : 0, "scenes" : [{}]}